<mxfile><diagram id="Spaw9XQYft9hzujYKVmt" name="Page-1"><mxGraphModel dx="702" dy="563" grid="1" gridSize="10" guides="1" tooltips="1" connect="0" arrows="1" fold="1" page="1" pageScale="1" pageWidth="850" pageHeight="1100" background="#080808" math="0" shadow="0"><root><mxCell id="0"/><mxCell id="1" parent="0"/><mxCell id="2" value="Database (MongoDB / SQL)" style="rounded=0;whiteSpace=wrap;html=1;fontStyle=1;fontSize=17;strokeWidth=4;fillColor=none;" parent="1" vertex="1"><mxGeometry x="340" y="870" width="185" height="60" as="geometry"/></mxCell><mxCell id="8" style="edgeStyle=none;html=1;exitX=0.015;exitY=0.5;exitDx=0;exitDy=0;exitPerimeter=0;fontStyle=1;fontSize=17;fontColor=#000000;strokeWidth=4;fillColor=none;" parent="1" source="4" target="7" edge="1"><mxGeometry relative="1" as="geometry"/></mxCell><mxCell id="4" value="" style="shape=mxgraph.signs.transportation.car_2;html=1;pointerEvents=1;verticalLabelPosition=bottom;verticalAlign=top;align=center;fontStyle=1;fontSize=17;strokeWidth=4;fillColor=none;" parent="1" vertex="1"><mxGeometry x="610" y="40" width="180" height="100" as="geometry"/></mxCell><mxCell id="10" style="edgeStyle=none;html=1;entryX=0.5;entryY=0;entryDx=0;entryDy=0;fontStyle=1;fontSize=17;fontColor=#000000;strokeWidth=4;fillColor=none;" parent="1" source="7" target="9" edge="1"><mxGeometry relative="1" as="geometry"/></mxCell><mxCell id="7" value="" style="html=1;verticalLabelPosition=bottom;align=center;labelBackgroundColor=#ffffff;verticalAlign=top;strokeWidth=4;shadow=0;dashed=0;shape=mxgraph.ios7.icons.camera;fontStyle=1;fontSize=17;fillColor=none;" parent="1" vertex="1"><mxGeometry x="100" y="51" width="100" height="78" as="geometry"/></mxCell><mxCell id="41" style="edgeStyle=none;html=1;labelBackgroundColor=#FFFFFF;strokeWidth=4;fontColor=#000000;fillColor=none;" parent="1" source="9" target="18" edge="1"><mxGeometry relative="1" as="geometry"/></mxCell><mxCell id="9" value="Microcontroler&lt;br&gt;&lt;span style=&quot;font-weight: normal; font-size: 13px;&quot;&gt;(generate a serial number for image and correspoinding voice file)&lt;/span&gt;" style="rounded=0;whiteSpace=wrap;html=1;fontStyle=1;fontSize=17;strokeWidth=4;fillColor=none;" parent="1" vertex="1"><mxGeometry x="40" y="220" width="220" height="120" as="geometry"/></mxCell><mxCell id="11" value="Actor" style="shape=umlActor;verticalLabelPosition=bottom;verticalAlign=top;html=1;outlineConnect=0;fontStyle=1;fontSize=17;strokeWidth=4;fillColor=none;" parent="1" vertex="1"><mxGeometry x="290" y="120" width="30" height="60" as="geometry"/></mxCell><mxCell id="36" style="edgeStyle=orthogonalEdgeStyle;html=1;entryX=0.5;entryY=0;entryDx=0;entryDy=0;fontSize=13;fontColor=#000000;strokeWidth=4;fillColor=none;" parent="1" source="14" target="15" edge="1"><mxGeometry relative="1" as="geometry"/></mxCell><mxCell id="14" value="Mic" style="ellipse;whiteSpace=wrap;html=1;aspect=fixed;fontStyle=1;fontSize=17;strokeWidth=4;fillColor=none;" parent="1" vertex="1"><mxGeometry x="370" y="130" width="40" height="40" as="geometry"/></mxCell><mxCell id="17" style="edgeStyle=none;html=1;entryX=1;entryY=0.5;entryDx=0;entryDy=0;fontStyle=1;fontSize=17;fontColor=#000000;strokeWidth=4;fillColor=none;" parent="1" source="15" target="9" edge="1"><mxGeometry relative="1" as="geometry"/></mxCell><mxCell id="15" value="Buffer" style="rounded=0;whiteSpace=wrap;html=1;fontStyle=1;fontSize=17;strokeWidth=4;fillColor=none;" parent="1" vertex="1"><mxGeometry x="600" y="250" width="120" height="60" as="geometry"/></mxCell><mxCell id="21" style="edgeStyle=none;html=1;fontStyle=1;fontSize=17;fontColor=#000000;strokeWidth=4;fillColor=none;" parent="1" source="18" target="20" edge="1"><mxGeometry relative="1" as="geometry"/></mxCell><mxCell id="23" style="edgeStyle=orthogonalEdgeStyle;html=1;entryX=0.5;entryY=0;entryDx=0;entryDy=0;fontStyle=1;fontSize=17;fontColor=#000000;strokeWidth=4;fillColor=none;" parent="1" source="18" target="22" edge="1"><mxGeometry relative="1" as="geometry"/></mxCell><mxCell id="18" value="" style="sketch=0;pointerEvents=1;shadow=0;dashed=0;html=1;aspect=fixed;labelPosition=center;verticalLabelPosition=bottom;verticalAlign=top;align=center;outlineConnect=0;shape=mxgraph.vvd.wi_fi;fontStyle=1;fontSize=17;strokeWidth=4;fillColor=none;" parent="1" vertex="1"><mxGeometry x="125" y="390" width="50" height="50" as="geometry"/></mxCell><mxCell id="25" style="edgeStyle=orthogonalEdgeStyle;html=1;entryX=0.5;entryY=0;entryDx=0;entryDy=0;fontStyle=1;fontSize=17;fontColor=#000000;strokeWidth=4;fillColor=none;" parent="1" source="20" target="24" edge="1"><mxGeometry relative="1" as="geometry"/></mxCell><mxCell id="20" value="API endpoint&lt;br style=&quot;font-size: 17px;&quot;&gt;(Image)" style="rounded=0;whiteSpace=wrap;html=1;fontStyle=1;fontSize=17;strokeWidth=4;fillColor=none;" parent="1" vertex="1"><mxGeometry x="90" y="500" width="120" height="60" as="geometry"/></mxCell><mxCell id="28" style="edgeStyle=orthogonalEdgeStyle;html=1;entryX=0;entryY=0.5;entryDx=0;entryDy=0;fontStyle=1;fontSize=17;fontColor=#000000;strokeWidth=4;fillColor=none;" parent="1" source="22" target="27" edge="1"><mxGeometry relative="1" as="geometry"/></mxCell><mxCell id="22" value="API endpoint&lt;br style=&quot;font-size: 17px;&quot;&gt;(audio)" style="rounded=0;whiteSpace=wrap;html=1;fontStyle=1;fontSize=17;strokeWidth=4;fillColor=none;" parent="1" vertex="1"><mxGeometry x="270" y="500" width="120" height="60" as="geometry"/></mxCell><mxCell id="32" style="edgeStyle=orthogonalEdgeStyle;html=1;entryX=0;entryY=0.5;entryDx=0;entryDy=0;fontStyle=1;fontSize=17;fontColor=#000000;strokeWidth=4;fillColor=none;" parent="1" source="24" target="2" edge="1"><mxGeometry relative="1" as="geometry"><Array as="points"><mxPoint x="160" y="900"/></Array></mxGeometry></mxCell><mxCell id="24" value="yolo Model" style="rounded=0;whiteSpace=wrap;html=1;fontStyle=1;fontSize=17;strokeWidth=4;fillColor=none;" parent="1" vertex="1"><mxGeometry x="90" y="710" width="120" height="60" as="geometry"/></mxCell><mxCell id="31" style="edgeStyle=orthogonalEdgeStyle;html=1;entryX=1;entryY=0.5;entryDx=0;entryDy=0;fontStyle=1;fontSize=17;fontColor=#000000;strokeWidth=4;fillColor=none;" parent="1" source="27" target="2" edge="1"><mxGeometry relative="1" as="geometry"><Array as="points"><mxPoint x="760" y="530"/><mxPoint x="760" y="900"/></Array></mxGeometry></mxCell><mxCell id="27" value="OpenAI Whisper" style="rounded=0;whiteSpace=wrap;html=1;fontStyle=1;fontSize=17;strokeWidth=4;fillColor=none;" parent="1" vertex="1"><mxGeometry x="505" y="500" width="120" height="60" as="geometry"/></mxCell><mxCell id="30" value="&lt;span style=&quot;font-weight: normal;&quot;&gt;export text &lt;br style=&quot;font-size: 17px;&quot;&gt;in json&lt;/span&gt;" style="text;html=1;align=center;verticalAlign=middle;resizable=0;points=[];autosize=1;fontStyle=1;fontSize=17;strokeWidth=4;fillColor=none;" parent="1" vertex="1"><mxGeometry x="630" y="550" width="100" height="50" as="geometry"/></mxCell><mxCell id="34" value="&lt;div style=&quot;text-align: left;&quot;&gt;&lt;ul&gt;&lt;li&gt;&lt;span style=&quot;background-color: initial;&quot;&gt;time&lt;/span&gt;&lt;/li&gt;&lt;li&gt;&lt;span style=&quot;background-color: initial;&quot;&gt;Image&amp;nbsp;&lt;/span&gt;&lt;/li&gt;&lt;li&gt;&lt;span style=&quot;background-color: initial;&quot;&gt;Number plate&lt;/span&gt;&lt;/li&gt;&lt;/ul&gt;&lt;/div&gt;" style="text;html=1;align=center;verticalAlign=middle;resizable=0;points=[];autosize=1;fontSize=17;strokeWidth=4;fillColor=none;" parent="1" vertex="1"><mxGeometry x="134" y="770" width="170" height="130" as="geometry"/></mxCell><mxCell id="35" value="&lt;div style=&quot;text-align: left;&quot;&gt;&lt;ul&gt;&lt;li&gt;&lt;b style=&quot;background-color: initial;&quot;&gt;Name&lt;/b&gt;&lt;/li&gt;&lt;li&gt;&lt;b style=&quot;background-color: initial;&quot;&gt;POV&lt;/b&gt;&lt;br&gt;&lt;/li&gt;&lt;li&gt;&lt;span style=&quot;background-color: initial;&quot;&gt;&lt;b&gt;Department&lt;/b&gt;&lt;/span&gt;&lt;/li&gt;&lt;li&gt;&lt;span style=&quot;background-color: initial;&quot;&gt;&lt;b&gt;Phone number&lt;/b&gt;&lt;/span&gt;&lt;/li&gt;&lt;/ul&gt;&lt;/div&gt;" style="text;html=1;align=center;verticalAlign=middle;resizable=0;points=[];autosize=1;fontSize=13;strokeWidth=4;fillColor=none;" parent="1" vertex="1"><mxGeometry x="590" y="740" width="150" height="130" as="geometry"/></mxCell><mxCell id="37" value="&lt;font style=&quot;font-size: 14px;&quot;&gt;&lt;b&gt;gaurd will press a &lt;br&gt;switch and then &lt;br&gt;S.no will be generated&lt;/b&gt;&lt;/font&gt;" style="text;html=1;align=center;verticalAlign=middle;resizable=0;points=[];autosize=1;fontSize=13;strokeWidth=4;fillColor=none;" parent="1" vertex="1"><mxGeometry x="335" y="190" width="170" height="60" as="geometry"/></mxCell></root></mxGraphModel></diagram></mxfile>